<svg width="115" height="80" viewBox="0 0 115 80" fill="none" xmlns="http://www.w3.org/2000/svg">
<path d="M16.3644 31.9297H0.958221C0.435555 31.9297 0 32.3652 0 32.8879V34.6052C0 35.1404 0.435555 35.5635 0.958221 35.5635H16.3644C16.8995 35.5635 17.3226 35.1279 17.3351 34.6052V32.9004C17.3351 32.3652 16.8995 31.9297 16.3644 31.9297ZM16.3644 41.487H0.958221C0.704085 41.487 0.460358 41.588 0.280656 41.7677C0.100955 41.9474 0 42.1911 0 42.4452L0 44.1626C0 44.6977 0.435555 45.1208 0.958221 45.1208H16.3644C16.8995 45.1208 17.3226 44.6977 17.3351 44.1626V42.4452C17.3351 41.9101 16.8995 41.487 16.3644 41.487ZM9.63199 46.2532H0.958221C0.704085 46.2532 0.460358 46.3542 0.280656 46.5339C0.100955 46.7136 0 46.9573 0 47.2114L0 48.9288C0 49.4639 0.435555 49.887 0.958221 49.887H9.61954C10.1547 49.887 10.5778 49.4514 10.5778 48.9288V47.2114C10.5902 46.6888 10.1671 46.2532 9.63199 46.2532ZM17.3351 36.7083H0.958221C0.704085 36.7083 0.460358 36.8093 0.280656 36.989C0.100955 37.1687 0 37.4124 0 37.6666L0 39.3839C0 39.919 0.435555 40.3421 0.958221 40.3421H17.3226C17.8578 40.3421 18.2809 39.9066 18.2809 39.3839V37.6666C18.2933 37.1439 17.8578 36.7083 17.3351 36.7083Z" fill="#00C3F7"/>
<path d="M35.2676 35.7992C34.7947 35.3139 34.2222 34.9281 33.6 34.6668C32.9653 34.4054 32.2933 34.2686 31.6089 34.2686C30.9369 34.2561 30.2773 34.393 29.68 34.6792C29.2765 34.8699 28.9132 35.136 28.6098 35.4632V35.1646C28.6098 35.0152 28.5476 34.8659 28.448 34.7539C28.3485 34.6294 28.1867 34.5672 28.0373 34.5672H25.8845C25.7227 34.5672 25.5733 34.6294 25.4738 34.7539C25.3618 34.8659 25.312 35.0152 25.312 35.1646V49.3388C25.312 49.4881 25.3742 49.6374 25.4738 49.7494C25.5858 49.8614 25.7351 49.9112 25.8845 49.9112H28.0622C28.2116 49.9112 28.3485 49.849 28.4605 49.7494C28.5725 49.6499 28.6471 49.5005 28.6347 49.3388V44.4979C28.9458 44.8339 29.344 45.0828 29.7796 45.2321C30.352 45.4437 30.9493 45.5432 31.5591 45.5432C32.256 45.5432 32.9404 45.4188 33.5751 45.145C34.2098 44.8837 34.7822 44.4979 35.2676 44.0001C35.7653 43.4899 36.1511 42.8801 36.4124 42.2206C36.7111 41.4739 36.848 40.6899 36.8356 39.8934C36.848 39.097 36.6987 38.3006 36.4124 37.5539C36.1511 36.9068 35.7529 36.3094 35.2676 35.7992ZM33.3013 40.9263C33.1893 41.225 33.0151 41.4988 32.7911 41.7352C32.3431 42.2081 31.7084 42.4819 31.0613 42.4694C30.7253 42.4694 30.4018 42.4072 30.1031 42.2703C29.8045 42.1459 29.5431 41.9592 29.3191 41.7352C29.0951 41.4988 28.9209 41.225 28.7965 40.9263C28.5476 40.2917 28.5476 39.5699 28.7965 38.9352C28.9085 38.6366 29.0951 38.3628 29.3191 38.1388C29.5431 37.9023 29.8169 37.7281 30.1031 37.5912C30.4018 37.4543 30.7378 37.3797 31.0613 37.3921C31.3973 37.3921 31.7209 37.4543 32.032 37.5912C32.3182 37.7281 32.5796 37.9023 32.8036 38.1263C33.0276 38.3628 33.1893 38.6241 33.3138 38.9228C33.5502 39.5699 33.5502 40.2792 33.3013 40.9263ZM48.5582 34.5672H46.3929C46.2435 34.5672 46.0942 34.6294 45.9947 34.7414C45.8827 34.8534 45.8204 35.0028 45.8204 35.1646V35.4259C45.5467 35.1148 45.2107 34.8534 44.8373 34.6792C44.24 34.393 43.5929 34.2561 42.9458 34.2686C41.552 34.2686 40.2204 34.8161 39.2249 35.7868C38.7147 36.297 38.3164 36.8943 38.0302 37.5663C37.7196 38.3065 37.567 39.1033 37.5822 39.9059C37.5698 40.7023 37.7191 41.4988 38.0302 42.2454C38.304 42.905 38.7147 43.5148 39.2124 44.025C40.1956 45.0205 41.5271 45.5681 42.9209 45.5557C43.5804 45.5681 44.2275 45.4312 44.8249 45.145C45.1982 44.9583 45.5467 44.7094 45.8204 44.3983V44.6845C45.8204 44.8339 45.8827 44.9832 45.9947 45.0952C46.1067 45.1948 46.2435 45.257 46.3929 45.257H48.5582C48.7075 45.257 48.8569 45.1948 48.9689 45.0952C49.0809 44.9832 49.1306 44.8463 49.1306 44.6845V35.1646C49.1306 35.0152 49.0809 34.8659 48.9689 34.7539C48.8693 34.6294 48.72 34.5672 48.5582 34.5672ZM45.6338 40.9139C45.5218 41.2126 45.3475 41.4863 45.1235 41.7228C44.8995 41.9468 44.6382 42.1334 44.352 42.2703C43.7422 42.5441 43.0329 42.5441 42.4231 42.2703C42.1369 42.1334 41.8631 41.9592 41.6391 41.7228C41.4151 41.4863 41.2409 41.2126 41.1289 40.9139C40.8924 40.2792 40.8924 39.5699 41.1289 38.9352C41.2409 38.6366 41.4151 38.3752 41.6391 38.1388C41.8631 37.9148 42.1244 37.7281 42.4231 37.5912C43.0329 37.3174 43.7422 37.3174 44.352 37.5912C44.6382 37.7281 44.8995 37.9023 45.1235 38.1263C45.3351 38.3628 45.5093 38.6241 45.6338 38.9228C45.8827 39.5699 45.8827 40.2792 45.6338 40.9139ZM70.1493 39.6321C69.8368 39.36 69.4787 39.1451 69.0915 38.9974C68.6809 38.8357 68.2577 38.7112 67.8222 38.6241L66.1671 38.3006C65.744 38.2259 65.4453 38.1139 65.2835 37.977C65.1466 37.8774 65.0595 37.7281 65.0595 37.5663C65.0595 37.3921 65.1591 37.2428 65.3706 37.1183C65.6568 36.969 65.968 36.8943 66.2915 36.9192C66.7146 36.9192 67.1377 37.0063 67.5235 37.1681C67.8968 37.3299 68.2702 37.5166 68.6062 37.7406C69.0915 38.0392 69.5022 37.9894 69.7884 37.6534L70.5848 36.7574C70.7342 36.6081 70.8213 36.409 70.8337 36.1974C70.8213 35.9734 70.7093 35.7743 70.5351 35.6374C70.1991 35.3512 69.664 35.0401 68.9546 34.7414C68.2453 34.4428 67.3493 34.281 66.2915 34.281C65.6444 34.2686 65.0097 34.3681 64.3875 34.5548C63.8649 34.7166 63.3671 34.9654 62.9315 35.3014C62.5457 35.6001 62.2222 35.9859 61.9982 36.4339C61.7866 36.8694 61.6746 37.3423 61.6746 37.8152C61.6746 38.6988 61.9484 39.4206 62.4835 39.9557C63.0186 40.4908 63.728 40.8392 64.6115 41.0134L66.3288 41.3868C66.7022 41.449 67.0755 41.561 67.424 41.7228C67.6106 41.7974 67.7351 41.9841 67.7351 42.1957C67.7351 42.3823 67.6355 42.5566 67.424 42.7059C67.2124 42.8552 66.864 42.9548 66.416 42.9548C65.9431 42.9672 65.4826 42.8552 65.0595 42.6561C64.6613 42.4694 64.288 42.2206 63.952 41.9343C63.8026 41.8099 63.6409 41.7228 63.4542 41.6606C63.2551 41.5983 63.0186 41.6606 62.7573 41.8721L61.8115 42.5814C61.6827 42.6718 61.5826 42.7972 61.5231 42.9428C61.4635 43.0884 61.447 43.2481 61.4755 43.4028C61.5253 43.7139 61.7866 44.025 62.272 44.3859C63.4666 45.1823 64.8729 45.593 66.3164 45.5681C66.9884 45.5805 67.648 45.481 68.2951 45.2943C68.8426 45.1325 69.3653 44.8712 69.8257 44.5352C70.2364 44.2241 70.5848 43.8259 70.8213 43.3654C71.0453 42.9174 71.1697 42.4197 71.1697 41.9094C71.1822 41.449 71.0826 41.001 70.896 40.5903C70.6968 40.217 70.448 39.8934 70.1493 39.6321ZM79.6071 42.2206C79.5075 42.0463 79.3333 41.9343 79.1342 41.9094C78.9351 41.9094 78.736 41.9717 78.5742 42.0837C78.3098 42.2548 78.0051 42.3536 77.6906 42.3699C77.5911 42.3699 77.4791 42.3574 77.3795 42.3326C77.2675 42.3077 77.1679 42.2579 77.0933 42.1832C76.9937 42.0961 76.9191 41.9841 76.8568 41.8597C76.7822 41.673 76.7573 41.4863 76.7573 41.2872V37.4046H79.5697C79.7315 37.4046 79.8933 37.3299 80.0053 37.2179C80.1173 37.1183 80.1919 36.969 80.1919 36.8072V35.1646C80.1919 35.0028 80.1297 34.8534 80.0053 34.7414C79.8933 34.6294 79.7315 34.5672 79.5822 34.5672H76.7697V31.9166C76.7822 31.7548 76.7075 31.593 76.5955 31.4935C76.4835 31.3939 76.3466 31.3317 76.1973 31.3317H74.0071C73.8577 31.3317 73.6959 31.3815 73.584 31.4935C73.472 31.6055 73.3973 31.7548 73.3973 31.9166V34.5672H72.1528C71.9911 34.5672 71.8417 34.6294 71.7422 34.7539C71.6426 34.8659 71.5804 35.0152 71.5804 35.1646V36.8072C71.5804 36.9566 71.6426 37.1059 71.7422 37.2179C71.8417 37.3423 71.9911 37.417 72.1528 37.4046H73.3973V42.0214C73.3848 42.569 73.4968 43.1166 73.7208 43.6143C73.92 44.025 74.2062 44.3859 74.5546 44.6845C74.9031 44.9708 75.3137 45.1699 75.7368 45.2943C76.1724 45.4312 76.6328 45.4934 77.0933 45.4934C77.7031 45.4934 78.3004 45.3939 78.8728 45.2072C79.4079 45.033 79.8808 44.7343 80.2791 44.3361C80.5279 44.0872 80.5528 43.7014 80.3537 43.4152L79.6071 42.2206ZM91.4666 34.5672H89.3013C89.1519 34.5672 89.0026 34.6294 88.903 34.7414C88.791 34.8534 88.7288 35.0028 88.7288 35.1646V35.4259C88.455 35.1148 88.119 34.8534 87.7457 34.6792C87.1484 34.393 86.5013 34.2561 85.8417 34.2686C84.454 34.2673 83.1217 34.8127 82.1333 35.7868C81.6231 36.297 81.2124 36.8943 80.9386 37.5663C80.6275 38.3006 80.4782 39.097 80.4906 39.8934C80.4782 40.6899 80.6275 41.4863 80.9386 42.233C81.2124 42.8926 81.6231 43.5023 82.1208 44.0125C83.0915 45.0081 84.4355 45.5557 85.8168 45.5557C86.4764 45.5681 87.1235 45.4312 87.7208 45.1574C88.0942 44.9708 88.4426 44.7219 88.7164 44.4108V44.6845C88.7174 44.8361 88.778 44.9811 88.8851 45.0882C88.9923 45.1954 89.1373 45.256 89.2888 45.257H91.4666C91.7777 45.257 92.039 45.0081 92.039 44.697V35.1646C92.039 35.0152 91.9893 34.8659 91.8773 34.7539C91.7777 34.6294 91.6284 34.5672 91.4666 34.5672ZM88.5422 40.9139C88.4302 41.2126 88.2559 41.4863 88.0319 41.7228C87.8079 41.9468 87.5466 42.1334 87.2604 42.2703C86.9617 42.4072 86.6257 42.4819 86.2897 42.4694C85.9537 42.4694 85.6302 42.3948 85.3315 42.2703C85.0453 42.1334 84.7715 41.9592 84.5475 41.7228C84.3235 41.4863 84.1493 41.2126 84.0373 40.9139C83.8008 40.2792 83.8008 39.5699 84.0373 38.9352C84.1493 38.6366 84.3235 38.3752 84.5475 38.1388C84.7715 37.9148 85.0328 37.7281 85.3315 37.5912C85.6302 37.4543 85.9537 37.3921 86.2897 37.3921C86.6257 37.3921 86.9493 37.4543 87.2604 37.5912C87.5466 37.7281 87.8079 37.9023 88.0319 38.1263C88.2559 38.3628 88.4302 38.6241 88.5422 38.9228C88.8036 39.5607 88.8036 40.2759 88.5422 40.9139ZM103.351 42.0837L102.107 41.1379C101.87 40.9512 101.646 40.9014 101.447 40.9761C101.273 41.0508 101.111 41.1628 100.987 41.2997C100.713 41.6232 100.402 41.9094 100.041 42.1459C99.6675 42.3574 99.2568 42.457 98.8337 42.4321C98.3481 42.438 97.8728 42.2926 97.4736 42.0161C97.0744 41.7396 96.7713 41.3457 96.6061 40.889C96.4941 40.5779 96.4319 40.2419 96.4319 39.9183C96.4319 39.5823 96.4817 39.2463 96.6061 38.9228C96.7181 38.6241 96.8799 38.3503 97.1039 38.1263C97.3279 37.9023 97.5893 37.7157 97.8755 37.5912C98.1741 37.4543 98.5101 37.3797 98.8461 37.3797C99.2693 37.3672 99.6924 37.4668 100.053 37.6783C100.414 37.9148 100.725 38.1886 100.999 38.5246C101.123 38.6614 101.273 38.7734 101.447 38.8481C101.646 38.9228 101.87 38.873 102.094 38.6863L103.339 37.753C103.488 37.6534 103.612 37.5041 103.662 37.3299C103.737 37.1432 103.712 36.9317 103.612 36.7574C103.127 36.0108 102.467 35.401 101.696 34.9779C100.875 34.5174 99.8915 34.281 98.7964 34.281C98.0248 34.281 97.2533 34.4303 96.5439 34.7166C95.8595 34.9903 95.2373 35.401 94.7146 35.9112C94.1919 36.4214 93.7688 37.0312 93.495 37.7032C92.9102 39.1264 92.9102 40.7227 93.495 42.1459C93.7813 42.8179 94.1919 43.4277 94.7146 43.9254C95.8093 44.9822 97.2748 45.5676 98.7964 45.5557C99.8915 45.5557 100.875 45.3192 101.696 44.8588C102.48 44.4357 103.139 43.8134 103.625 43.0668C103.724 42.8926 103.749 42.6934 103.675 42.5068C103.615 42.3346 103.502 42.1862 103.351 42.0837ZM114.875 44.2988L111.452 39.3334L114.377 35.513C114.514 35.3388 114.563 35.1023 114.501 34.8908C114.451 34.7414 114.315 34.5797 113.954 34.5797H111.639C111.502 34.5797 111.378 34.617 111.253 34.6668C111.104 34.7414 110.992 34.8534 110.917 34.9903L108.578 38.2259H108.018V30.5726C108.018 30.4232 107.968 30.2739 107.856 30.1619C107.802 30.1091 107.737 30.0676 107.667 30.0398C107.596 30.0121 107.521 29.9986 107.445 30.0001H105.28C105.131 30.0001 104.981 30.0623 104.869 30.1619C104.757 30.2615 104.683 30.4232 104.695 30.5726V44.6845C104.695 44.8463 104.757 44.9957 104.869 45.0952C104.981 45.2072 105.131 45.257 105.28 45.257H107.445C107.595 45.257 107.744 45.1948 107.856 45.0952C107.968 44.9832 108.018 44.8339 108.018 44.6845V40.9512H108.64L111.191 44.8214C111.34 45.0952 111.627 45.2694 111.938 45.2694H114.364C114.738 45.2694 114.887 45.0952 114.949 44.9459C115.036 44.7343 115.011 44.4854 114.875 44.2988ZM60.8657 34.5672H58.4391C58.2524 34.5548 58.0782 34.6294 57.9538 34.7539C57.8418 34.8659 57.7671 35.0028 57.7297 35.1521L55.9378 41.7477H55.5022L53.5858 35.1521C53.5484 35.0152 53.4862 34.8783 53.3991 34.7663C53.2995 34.6419 53.1378 34.5672 52.9635 34.5672H50.4498C50.1262 34.5672 49.9271 34.6668 49.84 34.8783C49.7778 35.065 49.7778 35.2766 49.84 35.4632L52.9138 44.7343C52.9635 44.8712 53.0382 45.0081 53.1502 45.1077C53.2746 45.2197 53.4364 45.2819 53.6106 45.2694H54.9049L54.7929 45.5681L54.5066 46.4268C54.4195 46.6881 54.2578 46.9245 54.0338 47.0988C53.8262 47.2558 53.5722 47.339 53.312 47.3352C53.088 47.3352 52.864 47.2854 52.6649 47.1983C52.4658 47.1112 52.2666 46.9992 52.0924 46.8623C51.9306 46.7503 51.744 46.6881 51.5449 46.6881H51.52C51.4079 46.6939 51.2991 46.7277 51.2034 46.7864C51.1078 46.8451 51.0284 46.9268 50.9724 47.0241L50.2009 48.1441C49.8898 48.6294 50.064 48.9405 50.2631 49.1148C50.6738 49.4881 51.1591 49.7743 51.6942 49.9485C52.2791 50.1477 52.9013 50.2472 53.5235 50.2472C54.6311 50.2472 55.5644 49.9485 56.2738 49.3512C57.008 48.7165 57.5555 47.8703 57.8293 46.937L61.3884 35.4632C61.4631 35.2641 61.4755 35.0526 61.4009 34.8534C61.3386 34.7166 61.2017 34.5672 60.8657 34.5672Z" fill="#011B33"/>
</svg>
